<svg width="280" height="80" viewBox="0 0 280 80" fill="none" xmlns="http://www.w3.org/2000/svg">
  <defs>
    <linearGradient id="wordmarkGradient" x1="12" y1="12" x2="268" y2="68" gradientUnits="userSpaceOnUse">
      <stop stop-color="#7F5AF0"/>
      <stop offset="0.5" stop-color="#5F7BFB"/>
      <stop offset="1" stop-color="#22D3EE"/>
    </linearGradient>
  </defs>
  <rect x="6" y="6" width="268" height="68" rx="20" fill="#090E1B" fill-opacity="0.7" stroke="#7F5AF0" stroke-opacity="0.55" stroke-width="2"/>
  <g fill="url(#wordmarkGradient)">
    <path d="M40.82 27.18C44.4 31.68 47.98 37.14 51.56 43.56C55.18 50.02 58 55.62 60.02 60.36H47.98C46.42 56.84 44.4 52.72 41.92 47.98C39.48 43.24 37.16 39.62 34.96 37.12V60.36H24.58V20.36H34.96C36.86 23 38.98 25.98 41.32 29.3C43.7 32.58 45.88 35.24 47.86 37.28V20.36H58.24V60.36H47.86C45.46 56.84 43.06 52.88 40.66 48.48C38.3 44.08 36.32 40.42 34.72 37.5V60.36H24.34V20.36H34.72C37.12 23.88 39.7 27.42 42.46 31C45.22 34.58 47.66 38.02 49.78 41.32V20.36H60.16V60.36H49.78C47.02 56.36 44.5 52.14 42.22 47.7C39.98 43.22 38.1 39.38 36.58 36.18V60.36H26.2V20.36H36.58C38.98 23.94 41.5 27.48 44.14 31C46.78 34.52 49.22 38 51.46 41.44V20.36H61.84V60.36H51.46C48.6 56.2 45.98 51.92 43.6 47.52C41.26 43.06 39.32 39.14 37.78 35.76V60.36H27.4V20.36H37.78C40.18 23.98 42.72 27.58 45.4 31.16C48.12 34.74 50.54 38.22 52.66 41.6V20.36H63.04V60.36H52.66C49.72 55.98 46.98 51.6 44.44 47.22C41.9 42.84 39.7 38.96 37.84 35.58V60.36H27.46V20.36H37.84C40.34 24.08 42.94 27.74 45.64 31.34C48.38 34.94 50.84 38.38 53.02 41.66V20.36H63.4V60.36H53.02C50.02 55.92 47.26 51.52 44.74 47.16C42.22 42.8 40.08 38.94 38.32 35.58V60.36H27.94V20.36H38.32C40.82 24.12 43.46 27.78 46.24 31.34C49.06 34.86 51.48 38.26 53.5 41.54V20.36H63.88V60.36H53.5C50.32 55.82 47.46 51.42 44.92 47.16C42.42 42.86 40.32 39.04 38.62 35.68V60.36H28.24V20.36H38.62C41.02 24.16 43.62 27.82 46.42 31.34C49.22 34.84 51.64 38.24 53.68 41.54V20.36H64.06V60.36H53.68C50.44 55.88 47.54 51.48 44.98 47.16C42.46 42.84 40.34 39.02 38.62 35.7V60.36H28.24V20.36H38.62C41 24.2 43.62 27.86 46.46 31.34C49.3 34.86 51.72 38.28 53.74 41.6V20.36H64.12V60.36H53.74C50.44 55.86 47.48 51.48 44.86 47.22C42.28 42.9 40.14 39.08 38.44 35.76V60.36H28.06V20.36H38.44Z"/>
    <text x="90" y="48" font-family="'Plus Jakarta Sans', 'Segoe UI', sans-serif" font-weight="700" font-size="28" letter-spacing="0.05em">Dragon Reptiles</text>
    <text x="90" y="66" font-family="'Plus Jakarta Sans', 'Segoe UI', sans-serif" font-weight="500" font-size="14" fill="#CBD5F5" fill-opacity="0.85">Terraristik CMS</text>
  </g>
</svg>
