<svg width="96" height="96" viewBox="0 0 96 96" fill="none" xmlns="http://www.w3.org/2000/svg">
  <defs>
    <linearGradient id="grad" x1="14" y1="8" x2="82" y2="88" gradientUnits="userSpaceOnUse">
      <stop stop-color="#7F5AF0"/>
      <stop offset="0.45" stop-color="#5F7BFB"/>
      <stop offset="1" stop-color="#22D3EE"/>
    </linearGradient>
    <linearGradient id="flame" x1="28" y1="24" x2="74" y2="72" gradientUnits="userSpaceOnUse">
      <stop stop-color="#FEE2FF" stop-opacity="0.95"/>
      <stop offset="1" stop-color="#C4F1F9" stop-opacity="0.85"/>
    </linearGradient>
    <filter id="shadow" x="6" y="6" width="84" height="84" filterUnits="userSpaceOnUse" color-interpolation-filters="sRGB">
      <feDropShadow dx="0" dy="10" stdDeviation="8" flood-color="#1E1B4B" flood-opacity="0.35"/>
    </filter>
  </defs>
  <g filter="url(#shadow)">
    <rect x="14" y="10" width="68" height="68" rx="20" fill="url(#grad)"/>
    <path d="M59.4 27.2c-6.6 2.6-10 5.9-11.6 10.6-1.2 3.6-0.92 7.3 0.8 10.7 0.6 1.1 0.12 2.4-1.04 2.9-4.3 1.9-8.02 1.12-11.62-2.78-3.3 7.58 1.57 17.18 10.73 19.28 7.93 1.82 16.67-2.88 19.47-10.88 2.8-8-0.58-18-8.74-24.82 3.3 5.12 3 9.7 0.34 13.92-0.6 0.96-1.86 1.28-2.86 0.74-3.8-2.02-5.94-6.72-4.32-11.54 1.1-3.32 3.76-6.18 8.84-8.18Z" fill="url(#flame)"/>
    <path d="M38.6 49.58c1.7 2.1 4.74 3.28 8.1 2.36 1.6-0.44 2.4 1.84 0.94 2.7-3.62 2.12-7.48 1.98-10.6-0.46-2.94-2.3-4.5-6.34-3.78-10.12 0.22-1.16 1.76-1.46 2.46-0.48 1.22 1.72 1.44 3.72 0.88 5.98Z" fill="#0F172A" fill-opacity="0.65"/>
  </g>
</svg>
