<svg xmlns="http://www.w3.org/2000/svg" viewBox="0 0 640 480" role="img" aria-labelledby="title desc">
  <title id="title">Sonnenuntergangs-Gecko</title>
  <desc id="desc">Ein futuristischer Gecko in warmen orange-violetten Nuancen sitzt auf einem diagonalen Ast.</desc>
  <defs>
    <linearGradient id="sunset" x1="0" x2="1" y1="0" y2="1">
      <stop offset="0%" stop-color="#2a1338" />
      <stop offset="100%" stop-color="#43131f" />
    </linearGradient>
    <linearGradient id="body" x1="0" x2="1">
      <stop offset="0%" stop-color="#ff9a8b" />
      <stop offset="50%" stop-color="#ff6a88" />
      <stop offset="100%" stop-color="#ff99ac" />
    </linearGradient>
    <linearGradient id="limb" x1="0" x2="1">
      <stop offset="0%" stop-color="#ffa9a3" />
      <stop offset="100%" stop-color="#ffd09b" />
    </linearGradient>
  </defs>
  <rect width="640" height="480" fill="url(#sunset)" />
  <path d="M80 420 L560 160" stroke="#ffb38a" stroke-width="30" stroke-linecap="round" opacity="0.5" />
  <path d="M110 410 L590 150" stroke="#ff6f61" stroke-width="20" stroke-linecap="round" opacity="0.35" />
  <path d="M230 300 C260 250 330 210 380 220 C430 230 470 270 470 310 C470 350 430 380 380 380 C330 380 280 350 260 330 L230 300 Z" fill="url(#body)" />
  <circle cx="400" cy="280" r="20" fill="#210a1e" />
  <circle cx="395" cy="275" r="10" fill="#ffd09b" />
  <path d="M260 330 C230 310 210 290 200 260 C220 250 250 250 270 270 C290 290 300 320 320 340 C340 360 360 370 380 366 C360 380 320 370 300 360 C280 350 270 340 260 330 Z" fill="url(#limb)" opacity="0.8" />
  <path d="M430 330 C450 320 470 300 490 300 C500 310 500 330 490 340 C470 360 430 360 410 350" fill="url(#limb)" opacity="0.8" />
  <path d="M230 300 C220 280 200 260 170 250 C150 260 150 280 160 300 C170 320 190 340 220 340" fill="url(#limb)" opacity="0.65" />
  <ellipse cx="280" cy="410" rx="220" ry="40" fill="#150913" opacity="0.5" />
</svg>
